<?xml version='1.0' encoding='utf-8'?>
<svg xmlns="http://www.w3.org/2000/svg" id="svg1396" version="1.1" viewBox="0 0 507.99999 285.75001" height="1080" width="1920"> <defs id="defs1390"/> <metadata id="metadata1393"> </metadata> <g transform="translate(0,-11.249992)" id="layer1"> <g id="g9385" transform="translate(109.74775,-5734.0299)"> <g id="g9094" transform="translate(9.3544331,4225.8651)"> <rect style="color:#000000;clip-rule:nonzero;display:inline;overflow:visible;visibility:visible;opacity:1;isolation:auto;mix-blend-mode:normal;color-interpolation:sRGB;color-interpolation-filters:linearRGB;solid-color:#000000;solid-opacity:1;fill:#1a1c2b;fill-opacity:1;fill-rule:nonzero;stroke:#0a0b15;stroke-width:0.079375;stroke-linecap:round;stroke-linejoin:round;stroke-miterlimit:4;stroke-dasharray:none;stroke-dashoffset:0;stroke-opacity:1;color-rendering:auto;image-rendering:auto;shape-rendering:auto;text-rendering:auto;enable-background:accumulate" id="rect9086" width="508" height="285.75" x="-119.0625" y="1519.3751"/> <rect y="1519.3751" x="-119.0625" height="285.75" width="508" id="rect9088" style="color:#000000;clip-rule:nonzero;display:inline;overflow:visible;visibility:visible;opacity:1;isolation:auto;mix-blend-mode:normal;color-interpolation:sRGB;color-interpolation-filters:linearRGB;solid-color:#000000;solid-opacity:1;fill:#1a1c2b;fill-opacity:1;fill-rule:nonzero;stroke:none;stroke-width:0.079375;stroke-linecap:round;stroke-linejoin:round;stroke-miterlimit:4;stroke-dasharray:none;stroke-dashoffset:0;stroke-opacity:1;color-rendering:auto;image-rendering:auto;shape-rendering:auto;text-rendering:auto;enable-background:accumulate"/> <path style="color:#000000;clip-rule:nonzero;display:inline;overflow:visible;visibility:visible;opacity:0.68399999;isolation:auto;mix-blend-mode:normal;color-interpolation:sRGB;color-interpolation-filters:linearRGB;solid-color:#000000;solid-opacity:1;fill:#0a0b15;fill-opacity:1;fill-rule:nonzero;stroke:none;stroke-width:0.07937499;stroke-linecap:round;stroke-linejoin:round;stroke-miterlimit:4;stroke-dasharray:none;stroke-dashoffset:0;stroke-opacity:1;color-rendering:auto;image-rendering:auto;shape-rendering:auto;text-rendering:auto;enable-background:accumulate" d="m -119.0625,1519.375 v 285.75 l 508,-285.75 z" id="path9090"/> <path id="path9092" d="m -119.0625,1519.375 v 285.75 l 508,-285.75 z" style="color:#000000;clip-rule:nonzero;display:inline;overflow:visible;visibility:visible;opacity:0.68399999;isolation:auto;mix-blend-mode:normal;color-interpolation:sRGB;color-interpolation-filters:linearRGB;solid-color:#000000;solid-opacity:1;fill:#0a0b15;fill-opacity:1;fill-rule:nonzero;stroke:none;stroke-width:0.07937499;stroke-linecap:round;stroke-linejoin:round;stroke-miterlimit:4;stroke-dasharray:none;stroke-dashoffset:0;stroke-opacity:1;color-rendering:auto;image-rendering:auto;shape-rendering:auto;text-rendering:auto;enable-background:accumulate"/> </g> <path style="color:#000000;clip-rule:nonzero;display:inline;overflow:visible;visibility:visible;opacity:1;isolation:auto;mix-blend-mode:normal;color-interpolation:sRGB;color-interpolation-filters:linearRGB;solid-color:#000000;solid-opacity:1;fill:#5599ff;fill-opacity:1;fill-rule:nonzero;stroke:none;stroke-width:0.29030237;stroke-linecap:round;stroke-linejoin:round;stroke-miterlimit:4;stroke-dasharray:none;stroke-dashoffset:0;stroke-opacity:1;color-rendering:auto;image-rendering:auto;shape-rendering:auto;text-rendering:auto;enable-background:accumulate" d="m 253.15532,5808.2821 a 14.515119,14.515119 0 0 0 -14.51512,14.5151 14.515119,14.515119 0 0 0 2.93223,8.7249 l -56.49329,79.0907 a 14.515119,14.515119 0 0 0 -4.49942,-0.7247 14.515119,14.515119 0 0 0 -6.707,1.6497 l -53.00683,-53.0071 a 14.515119,14.515119 0 0 0 1.65336,-6.7032 14.515119,14.515119 0 0 0 -14.51512,-14.5152 14.515119,14.515119 0 0 0 -14.515117,14.5152 14.515119,14.515119 0 0 0 3.00311,8.8239 l -55.66804,79.3188 a 14.515119,14.515119 0 0 0 -5.39554,-1.052 14.515119,14.515119 0 0 0 -14.51512,14.5151 14.515119,14.515119 0 0 0 14.51512,14.5151 14.515119,14.515119 0 0 0 14.51511,-14.5151 14.515119,14.515119 0 0 0 -2.36352,-7.9298 l 56.036587,-79.845 a 14.515119,14.515119 0 0 0 4.38741,0.6841 14.515119,14.515119 0 0 0 6.70673,-1.6498 l 53.00712,53.0072 a 14.515119,14.515119 0 0 0 -1.65337,6.7032 14.515119,14.515119 0 0 0 14.51511,14.5151 14.515119,14.515119 0 0 0 14.51513,-14.5151 14.515119,14.515119 0 0 0 -2.93195,-8.7246 l 56.49359,-79.091 a 14.515119,14.515119 0 0 0 4.49883,0.7247 14.515119,14.515119 0 0 0 14.51512,-14.5151 14.515119,14.515119 0 0 0 -14.51512,-14.5151 z" id="path9096"/> </g> </g> </svg>